<svg xmlns="http://www.w3.org/2000/svg" viewBox="0 0 8 12" width="8" height="12">
	<style>
		tspan { white-space:pre }
		.shp0 { fill: #ffffff } 
	</style>
	<g id="CALENDAR">
		<path id="Next" class="shp0" d="M4.22 5.99L0.33 2.11C-0.06 1.72 -0.06 1.08 0.33 0.69L0.69 0.34C1.08 -0.05 1.71 -0.05 2.1 0.34L6.67 4.91C6.68 4.92 6.69 4.92 6.7 4.93L7.05 5.28C7.25 5.48 7.34 5.74 7.34 5.99C7.34 6.25 7.25 6.51 7.05 6.7L6.7 7.06C6.69 7.06 6.68 7.07 6.67 7.07L2.1 11.65C1.71 12.04 1.08 12.04 0.69 11.65L0.33 11.29C-0.06 10.9 -0.06 10.27 0.33 9.88L4.22 5.99Z" />
	</g>
</svg>