<svg xmlns="http://www.w3.org/2000/svg" viewBox="0 0 8 12" width="8" height="12">
	<style>
		tspan { white-space:pre }
		.shp0 { fill: #ffffff } 
	</style>
	<g id="CALENDAR">
		<path id="Prev" class="shp0" d="M3.33 5.99L7.22 2.11C7.61 1.72 7.61 1.08 7.22 0.69L6.86 0.34C6.47 -0.05 5.84 -0.05 5.45 0.34L0.88 4.91C0.87 4.92 0.86 4.92 0.85 4.93L0.5 5.28C0.3 5.48 0.21 5.74 0.21 5.99C0.21 6.25 0.3 6.51 0.5 6.7L0.85 7.06C0.86 7.06 0.87 7.07 0.88 7.07L5.45 11.65C5.84 12.04 6.47 12.04 6.86 11.65L7.22 11.29C7.61 10.9 7.61 10.27 7.22 9.88L3.33 5.99Z" />
	</g>
</svg>