<svg xmlns="http://www.w3.org/2000/svg" viewBox="0 0 27 17" width="27" height="17">
	<style>
		tspan { white-space:pre }
		.shp0 { fill: #ffffff } 
	</style>
	<g id="DESTINATION">
		<g id="TABS">
			<path id="Forma 1 copy 7" class="shp0" d="M13.75 6.74C14.67 6.74 15.41 7.5 15.41 8.43C15.41 9.37 14.67 10.12 13.75 10.12C12.83 10.12 12.09 9.37 12.09 8.43C12.09 7.5 12.83 6.74 13.75 6.74ZM13.75 -0.03C5.45 -0.03 0.48 8.43 0.48 8.43C0.48 8.43 5.43 16.93 13.75 16.93C22.07 16.93 27.02 8.43 27.02 8.43C27.02 8.43 22.05 -0.03 13.75 -0.03ZM13.75 13.5C11 13.5 8.77 11.23 8.77 8.43C8.77 5.63 11 3.37 13.75 3.37C16.5 3.37 18.73 5.63 18.73 8.43C18.73 11.23 16.5 13.5 13.75 13.5Z" />
		</g>
	</g>
</svg>