<svg xmlns="http://www.w3.org/2000/svg" viewBox="0 0 18 26" width="18" height="26">
	<style>
		tspan { white-space:pre }
		.shp0 { fill: #ffffff } 
	</style>
	<g id="DESTINATION">
		<g id="TABS">
			<path id="Forma 1 copy 11" class="shp0" d="M8.46 25.21C8.58 25.36 8.7 25.45 8.82 25.52L8.82 25.52L9.06 25.6L9.3 25.52L9.3 25.52C9.42 25.45 9.54 25.36 9.67 25.21C9.67 25.21 16.63 17.24 17.33 10.33C17.37 9.97 17.4 9.61 17.4 9.24C17.4 4.36 13.64 0.4 9 0.4C4.36 0.4 0.6 4.36 0.6 9.24C0.6 9.62 0.63 9.98 0.67 10.34C1.39 17.25 8.46 25.21 8.46 25.21ZM9 3.55C11.98 3.55 14.4 6.11 14.4 9.24C14.4 12.38 11.98 14.93 9 14.93C6.02 14.93 3.6 12.38 3.6 9.24C3.6 6.11 6.02 3.55 9 3.55Z" />
		</g>
	</g>
</svg>