<svg xmlns="http://www.w3.org/2000/svg" viewBox="0 0 21 20" width="21" height="20">
	<style>
		tspan { white-space:pre }
		.shp0 { fill: #ffffff } 
	</style>
	<g id="DESTINATION">
		<g id="TABS">
			<path id="Forma 1 copy 10" class="shp0" d="M20.58 8.5L15.15 12.45L17.22 18.85C17.34 19.19 17.21 19.57 16.92 19.79C16.77 19.89 16.6 19.95 16.43 19.95C16.25 19.95 16.08 19.89 15.93 19.79L10.5 15.83L5.07 19.79C4.77 20 4.37 20 4.08 19.79C3.79 19.57 3.66 19.19 3.78 18.85L5.85 12.45L0.42 8.5C0.12 8.28 0 7.9 0.11 7.56C0.23 7.21 0.55 6.98 0.91 6.98L7.63 6.98L9.7 0.58C9.81 0.23 10.14 0 10.5 0C10.86 0 11.19 0.23 11.3 0.58L13.37 6.98L20.09 6.98C20.45 6.98 20.78 7.21 20.89 7.56C21 7.9 20.88 8.28 20.58 8.5Z" />
		</g>
	</g>
</svg>